<?xml version="1.0" standalone="no"?>
<!DOCTYPE svg PUBLIC "-//W3C//DTD SVG 20010904//EN"
 "http://www.w3.org/TR/2001/REC-SVG-20010904/DTD/svg10.dtd">
<svg version="1.0" xmlns="http://www.w3.org/2000/svg"
 width="512.000000pt" height="512.000000pt" viewBox="0 0 512.000000 512.000000"
 preserveAspectRatio="xMidYMid meet">

<g transform="translate(0.000000,512.000000) scale(0.100000,-0.100000)"
fill="#000000" stroke="none">
<path d="M3595 4856 c-16 -7 -318 -164 -670 -348 -352 -185 -674 -352 -715
-372 -64 -31 -186 -62 -825 -208 l-750 -172 -187 -5 c-204 -7 -213 -9 -262
-75 -21 -27 -21 -32 -21 -1116 0 -1084 0 -1089 21 -1116 11 -15 33 -37 48 -48
27 -21 32 -21 1327 -24 714 -1 1299 -5 1299 -8 0 -3 -11 -20 -25 -38 -37 -48
-85 -161 -101 -235 -44 -208 21 -427 171 -576 122 -121 256 -183 419 -192 118
-7 215 14 326 69 117 57 223 163 280 281 22 46 40 90 40 99 0 23 19 33 90 47
109 21 223 84 310 171 247 247 253 631 14 889 l-64 69 0 106 c0 58 3 106 7
106 27 0 504 115 531 127 48 23 82 78 82 133 0 25 -105 506 -234 1069 l-233
1024 -36 33 c-63 58 -87 59 -302 10 -136 -31 -192 -40 -198 -32 -4 6 -43 76
-85 156 -71 134 -81 147 -122 168 -50 25 -91 27 -135 8z m175 -371 c0 -8 -970
-238 -977 -231 -1 0 193 103 430 227 l432 227 57 -107 c32 -58 58 -111 58
-116z m563 -82 c3 -16 105 -464 227 -997 121 -533 218 -972 214 -975 -3 -3
-105 -29 -227 -57 l-222 -50 -3 65 c-2 46 1 67 9 70 7 2 23 14 36 27 19 19 23
34 23 86 0 83 21 117 94 151 39 19 60 35 67 54 15 39 -252 1207 -283 1240 -18
19 -32 23 -83 23 -80 0 -121 25 -154 97 -43 92 48 105 -1095 -156 l-1014 -231
-294 1 -293 1 185 42 c102 24 486 112 855 196 369 84 951 217 1295 296 344 78
632 143 641 143 10 1 19 -10 22 -26z m-386 -432 c55 -55 98 -79 174 -95 23 -5
29 -14 42 -66 l15 -60 -752 1 -751 0 600 139 c330 76 603 139 607 139 4 1 33
-25 65 -58z m213 -1157 l0 -776 -22 6 c-13 4 -44 12 -70 18 l-48 11 0 552 c0
535 -1 553 -20 577 -13 17 -34 28 -63 32 -82 12 -137 68 -137 140 0 14 -11 38
-24 53 l-24 28 -1484 3 c-815 1 -1498 0 -1516 -3 -42 -8 -68 -37 -76 -87 -13
-79 -54 -121 -132 -134 -48 -7 -70 -22 -84 -58 -14 -38 -14 -1194 0 -1232 14
-36 36 -51 84 -58 77 -13 119 -55 132 -132 7 -48 22 -70 58 -84 18 -7 446 -10
1306 -10 l1279 0 -10 -29 c-9 -26 -18 -31 -67 -41 -31 -7 -84 -23 -118 -36
l-61 -24 -1371 0 -1372 0 0 1030 0 1030 1920 0 1920 0 0 -776z m-2536 394
c-189 -181 -279 -390 -279 -648 0 -258 90 -467 279 -648 l86 -82 -440 0 -439
0 -20 44 c-24 56 -91 123 -147 147 l-44 20 0 519 0 519 44 20 c56 24 123 91
147 147 l20 44 439 0 440 0 -86 -82z m764 66 c95 -19 238 -87 314 -148 107
-86 194 -219 239 -366 30 -97 33 -280 6 -380 -40 -152 -142 -306 -259 -395
-301 -228 -706 -201 -968 64 -87 89 -140 173 -177 286 -25 72 -27 94 -27 225
0 131 2 153 27 225 119 357 478 564 845 489z m1282 -35 c28 -59 84 -113 146
-141 l44 -19 0 -498 0 -497 -76 -17 c-115 -25 -216 -79 -305 -164 l-76 -73
-319 0 -319 0 68 62 c90 80 159 172 212 283 173 357 89 779 -208 1050 l-71 65
440 0 441 0 23 -51z m707 -384 c-1 0 -14 -9 -29 -18 l-28 -17 1 142 0 143 30
-124 c16 -69 28 -125 26 -126z m-300 -966 c194 -66 317 -241 317 -449 0 -209
-123 -383 -319 -450 -32 -11 -61 -20 -65 -20 -4 0 -10 28 -14 63 -14 141 -76
269 -182 377 l-54 56 22 44 c17 33 35 51 68 68 59 29 83 28 159 -9 56 -27 66
-29 92 -18 35 14 49 36 49 79 0 65 -115 130 -230 130 -115 0 -229 -67 -281
-164 -17 -33 -28 -44 -39 -40 -8 4 -40 14 -70 22 -30 9 -57 17 -58 18 -2 1 5
22 16 46 61 136 198 240 352 268 63 12 170 2 237 -21z m-563 -479 c200 -68
322 -243 319 -455 -3 -269 -205 -469 -473 -469 -208 0 -379 121 -451 320 -17
45 -22 82 -22 154 0 72 5 109 22 154 61 171 197 284 381 320 48 9 165 -3 224
-24z"/>
<path d="M925 2744 c-45 -23 -93 -74 -106 -111 -24 -75 -9 -155 39 -206 91
-97 242 -86 317 21 26 38 30 52 30 112 0 60 -4 74 -30 112 -54 78 -173 112
-250 72z m99 -150 c21 -8 21 -60 0 -68 -41 -16 -74 41 -36 63 21 13 17 12 36
5z"/>
<path d="M2186 3139 c-21 -16 -26 -29 -26 -64 0 -43 -1 -44 -52 -68 -73 -33
-114 -71 -145 -131 -57 -110 -21 -255 80 -323 25 -17 102 -50 171 -73 69 -23
132 -50 142 -61 12 -13 19 -36 19 -61 0 -81 -105 -130 -201 -93 -54 20 -74 54
-74 125 0 62 -30 100 -80 100 -69 0 -97 -45 -87 -140 12 -114 67 -188 174
-237 52 -24 53 -25 53 -68 0 -35 5 -48 26 -64 61 -48 134 -8 134 71 0 43 1 44
49 61 58 20 126 83 152 140 21 48 25 131 7 189 -14 49 -78 123 -127 147 -20
10 -87 35 -148 55 -119 40 -153 65 -153 113 0 102 157 150 242 74 28 -25 32
-36 36 -92 5 -79 28 -109 82 -109 60 0 80 30 80 121 0 90 -21 140 -80 198 -24
23 -64 49 -91 58 -48 17 -49 18 -49 61 0 79 -73 119 -134 71z"/>
<path d="M3365 2743 c-153 -80 -155 -286 -3 -364 73 -37 179 -18 234 43 93
101 64 256 -58 319 -46 23 -131 25 -173 2z m109 -159 c9 -8 16 -19 16 -24 0
-11 -29 -40 -40 -40 -11 0 -40 29 -40 40 0 5 7 16 16 24 8 9 19 16 24 16 5 0
16 -7 24 -16z"/>
<path d="M3240 1258 c-74 -29 -150 -105 -178 -181 -44 -115 -20 -244 61 -332
57 -61 95 -69 137 -27 39 40 38 70 -5 122 -32 38 -55 93 -55 130 1 33 41 101
71 119 60 36 102 37 175 1 59 -28 69 -30 95 -19 59 24 68 94 19 139 -72 68
-214 89 -320 48z"/>
</g>
</svg>
